<?xml version="1.0" encoding="utf-8"?>
<!-- Generator: Adobe Illustrator 18.0.0, SVG Export Plug-In . SVG Version: 6.00 Build 0)  -->
<!DOCTYPE svg PUBLIC "-//W3C//DTD SVG 1.1//EN" "http://www.w3.org/Graphics/SVG/1.1/DTD/svg11.dtd">
<svg version="1.1" id="Ebene_1" xmlns="http://www.w3.org/2000/svg" xmlns:xlink="http://www.w3.org/1999/xlink" x="0px" y="0px"
	 viewBox="595.2 357 88.7 86.7" enable-background="new 595.2 357 88.7 86.7" xml:space="preserve">
<g id="Hintergrund">
</g>
<g id="Hilfslinien_anzeigen">
</g>
<g id="Vordergrund">
</g>
<g id="Ebene_1_1_">
	<path fill="#00B1EB" d="M603.9,400.3c0,8.8,3.2,16.9,8.5,23.1l-5.5,6.2c-7.2-7.7-11.7-18-11.7-29.3c0-23.9,19.9-43.3,44.4-43.3
		s44.4,19.4,44.4,43.3c0,11.3-4.4,21.6-11.7,29.3l-5.5-6.2c5.3-6.3,8.5-14.3,8.5-23.1c0-19.8-16-35.7-35.7-35.7
		C619.9,364.6,603.9,380.6,603.9,400.3z"/>
	<path fill="#00264F" d="M635.7,385.9c0,2.2,1.7,3.9,3.9,3.9c2.2,0,3.9-1.7,3.9-3.9c0-2.2-1.7-3.9-3.9-3.9
		C637.4,382.1,635.7,383.8,635.7,385.9z M628.3,395.7h6.9v-0.9c-3.4-1.6-5.7-4.9-5.7-8.8c0-5.4,4.5-9.9,10.1-9.9
		c5.6,0,10.1,4.4,10.1,9.9c0,3.9-2.4,7.3-5.7,8.8v0.9h6.9v5.3H644v34.7c6.8-0.9,13-3.6,18.1-7.7l5.2,6.1c-7.6,5.9-17.2,9.5-27.6,9.5
		s-20.1-3.5-27.6-9.5l5.2-6.1c5,4.1,11.3,6.8,18.1,7.7V401h-6.9V395.7z"/>
</g>
</svg>
